<svg xmlns="http://www.w3.org/2000/svg" width="40" height="40" viewBox="0 0 40 40"><g><g><g><path fill="#e6e6e6" d="M.25 20C.25 9.091 9.092.25 20 .25S39.75 9.092 39.75 20c0 10.907-8.842 19.75-19.75 19.75S.25 30.906.25 20z"/></g><g><path fill="#888" d="M29.752 15.622l-1.726 13.806a2.589 2.589 0 0 1-2.589 2.589h-8.629a2.589 2.589 0 0 1-2.588-2.59l-1.726-13.805zM16.808 29.428h1.726V18.21h-1.726zm3.452 0h1.726V18.21H20.26zm3.452 0h1.725V18.21h-1.725zm-4.315-18.984h3.452c.476 0 .863 1.726.863 1.726h-5.178s.387-1.726.863-1.726zm-6.471 1.726H29.32c.715 0 1.294.58 1.294 1.294v1.295H11.631v-1.295c0-.715.58-1.294 1.295-1.294z"/></g></g></g></svg>